<?xml version="1.0" encoding="utf-8"?>
<!-- Generator: Adobe Illustrator 21.0.0, SVG Export Plug-In . SVG Version: 6.00 Build 0)  -->
<svg version="1.1"
	 id="Calque_1" inkscape:version="0.92.1 r15371" sodipodi:docname="4qwant_block_RGB__.svg" xmlns:cc="http://creativecommons.org/ns#" xmlns:dc="http://purl.org/dc/elements/1.1/" xmlns:inkscape="http://www.inkscape.org/namespaces/inkscape" xmlns:rdf="http://www.w3.org/1999/02/22-rdf-syntax-ns#" xmlns:sodipodi="http://sodipodi.sourceforge.net/DTD/sodipodi-0.dtd" xmlns:svg="http://www.w3.org/2000/svg"
	 xmlns="http://www.w3.org/2000/svg" xmlns:xlink="http://www.w3.org/1999/xlink" x="0px" y="0px" viewBox="0 0 242.9 247.3"
	 style="enable-background:new 0 0 242.9 247.3;" xml:space="preserve">
<style type="text/css">
	.st0{fill:url(#path25_1_);}
	.st1{fill:#0A92EF;}
	.st2{fill:url(#polygon34_1_);}
	.st3{fill:#FFAA64;}
	.st4{fill:#0E9F9D;}
	.st5{fill:#2EC75B;}
	.st6{fill:#0ABFFF;}
	.st7{fill:#FF2B2A;}
	.st8{fill:#E60000;}
	.st9{fill:#FF2C1D;}
	.st10{fill:#FF5429;}
	.st11{fill:#FF8F2B;}
	.st12{fill:#B20070;}
	.st13{fill:#B9E239;}
	.st14{fill:#E4F445;}
	.st15{fill:#7CED91;}
	.st16{fill:#FFFFFF;}
	.st17{fill:#0F8791;}
	.st18{fill:#18D1C3;}
	.st19{fill:#47D6E5;}
	.st20{fill:#1B7EEA;}
	.st21{fill:#2AD3FF;}
	.st22{fill:url(#path81_1_);}
	.st23{fill:url(#path88_1_);}
	.st24{fill:#CD2B90;}
	.st25{fill:#0E799A;}
	.st26{fill:#FAFB3E;}
</style>
<sodipodi:namedview  bordercolor="#666666" borderopacity="1" fit-margin-bottom="0" fit-margin-left="0" fit-margin-right="0" fit-margin-top="0" gridtolerance="10" guidetolerance="10" id="namedview103" inkscape:current-layer="Calque_1" inkscape:cx="151.46657" inkscape:cy="209.94594" inkscape:pageopacity="0" inkscape:pageshadow="2" inkscape:window-height="1001" inkscape:window-maximized="1" inkscape:window-width="1920" inkscape:window-x="-9" inkscape:window-y="-9" inkscape:zoom="1.1125147" objecttolerance="10" pagecolor="#ffffff" showgrid="false">
	</sodipodi:namedview>
<g id="g98" transform="translate(-238.8,-112.7)">
	<g id="g96">
		
			<linearGradient id="path25_1_" gradientUnits="userSpaceOnUse" x1="519.4" y1="299.8" x2="613.8" y2="299.8" gradientTransform="matrix(1 0 0 -1 -238.8 452.7)">
			<stop  offset="0" style="stop-color:#FFDD24"/>
			<stop  offset="1" style="stop-color:#F4EF25"/>
		</linearGradient>
		<path id="path25" inkscape:connector-curvature="0" class="st0" d="M361.2,155.4l13.8-21.1l-53.7-15.7
			c-15.1,5-28.9,13.1-40.7,23.4l15.8,45.2c14.2-19.3,36.7-31.8,62.1-31.8C359.4,155.3,360.3,155.3,361.2,155.4L361.2,155.4z"/>
		<path id="path27" inkscape:connector-curvature="0" class="st1" d="M460,310.7l-18.1-15l-40.1,6c-1.6,1.1-3.3,2.2-5.1,3.2l38,36.1
			l21.4,18.9l25.6-30L460,310.7z"/>
		
			<linearGradient id="polygon34_1_" gradientUnits="userSpaceOnUse" x1="648.5181" y1="294.0148" x2="710.512" y2="235.7782" gradientTransform="matrix(1 0 0 -1 -238.8 452.7)">
			<stop  offset="0" style="stop-color:#FFAA64"/>
			<stop  offset="1" style="stop-color:#FF3264"/>
		</linearGradient>
		<polygon id="polygon34" class="st2" points="455.8,187.5 415.8,181 417.4,149.3 		"/>
		<polygon id="polygon36" class="st3" points="455.8,187.5 415.8,181 417.4,149.3 		"/>
		<path id="path38" inkscape:connector-curvature="0" class="st4" d="M415.9,181.2c4.4,4.9,8.2,10.5,11.3,16.4l35.4,51.4l-6.4-61.6
			l-40.5-6.4L415.9,181.2z"/>
		<polygon id="polygon40" class="st5" points="455.8,187.5 415.8,181 417.4,149.3 		"/>
		<polygon id="polygon42" class="st6" points="441.9,295.7 447.5,334.7 481.7,329.8 461.8,312.1 		"/>
		<path id="path44" inkscape:connector-curvature="0" class="st7" d="M307.8,321.8l10.8-18c-19.9-12.3-34-33.5-37.1-58.3l-8.9,29.2
			L307.8,321.8z"/>
		<path id="path46" inkscape:connector-curvature="0" class="st8" d="M250.9,289.1c7.8,16.3,18.9,30.5,32.6,41.7l24.4-9.1
			l-35.2-47.1L250.9,289.1z"/>
		<path id="path48" inkscape:connector-curvature="0" class="st9" d="M251.2,289.7l22-14.7l-12.5-63.6l-16.2-13.7
			c-3.7,11.8-5.7,24.5-5.7,37.6C238.8,254.8,243.3,273.3,251.2,289.7L251.2,289.7z"/>
		<path id="path50" inkscape:connector-curvature="0" class="st10" d="M280.8,235.2c0-2.1,0.1-4.2,0.3-6.3l-20.4-17.5l12.3,63.8
			l8.7-27.9C281.1,243.4,280.8,239.3,280.8,235.2L280.8,235.2z"/>
		<path id="path52" inkscape:connector-curvature="0" class="st11" d="M244.4,198.1l16.3,13.3l20.4,17.5
			c1.2-15.7,6.8-30.2,15.6-42.1l-11.6-32.3l-22.3,6.9C254.8,172.4,248.5,184.7,244.4,198.1z"/>
		<path id="path54" inkscape:connector-curvature="0" class="st12" d="M360.4,358v-41.3l0.2-1.5c-0.7,0-1.3,0-2,0
			c-1.2,0-2.4,0-3.6-0.1l-47.2,6.7l-24.4,9.1c20.6,17,46.7,27.2,75.2,27.2C359.2,358,359.8,358,360.4,358L360.4,358z"/>
		<path id="path56" inkscape:connector-curvature="0" class="st13" d="M417.4,149.3l-42-15.7l-14.2,21.8c21.6,0.7,41,10.5,54.7,25.8
			l0,0L417.4,149.3z"/>
		<path id="path58" inkscape:connector-curvature="0" class="st14" d="M434.3,140.1c-15.6-13.1-35.4-22-56.2-25.7l-3.7,20l43.3,15.3
			L434.3,140.1z"/>
		<path id="path60" inkscape:connector-curvature="0" class="st15" d="M434.2,140l-16.8,9.3l38.9,38.8l11.5-3.4
			C460.1,167.2,448.5,151.9,434.2,140z"/>
		<g id="g66">
			<path id="path62" inkscape:connector-curvature="0" class="st16" d="M415.8,181L415.8,181c0,0.1,0.1,0.1,0.1,0.2L415.8,181z"/>
			<path id="path64" inkscape:connector-curvature="0" class="st17" d="M436.4,235.2c0,16.5-4.9,31.9-13.3,44.6l39.6-31.7
				l-35.8-51.3C432.9,208.2,436.4,221.3,436.4,235.2L436.4,235.2z"/>
		</g>
		<path id="path68" inkscape:connector-curvature="0" class="st18" d="M455.8,187.5l6.4,61l16-5.9c0.1-2.5,0.2-4.9,0.2-7.4
			c0-18.1-3.9-35.3-10.7-50.8L455.8,187.5z"/>
		<path id="path70" inkscape:connector-curvature="0" class="st19" d="M462.3,248.5l-20.4,47.2l17.3,14.3l0,0l-3.3-2.9l0,0
			c13.2-18.7,21.4-41.4,22.5-66L462.3,248.5z"/>
		<path id="path72" inkscape:connector-curvature="0" class="st20" d="M447.5,334.7l-50.2-30.1c-0.2,0.1-0.4,0.3-0.6,0.4l38,36.1
			l21.4,18.9l1.4-1.6L447.5,334.7z"/>
		<polygon id="polygon74" class="st21" points="457.5,358.2 481.7,329.8 447.5,334.7 		"/>
		
			<linearGradient id="path81_1_" gradientUnits="userSpaceOnUse" x1="464.8546" y1="85.0734" x2="533.0067" y2="425.1592" gradientTransform="matrix(1 0 0 -1 -238.8 452.7)">
			<stop  offset="0" style="stop-color:#FF6D19"/>
			<stop  offset="1" style="stop-color:#FBF124"/>
		</linearGradient>
		<path id="path81" inkscape:connector-curvature="0" class="st22" d="M239.5,221.8l21.2-10.5l24.4-56.9l-4.4-12.4
			C258.2,161.7,242.9,189.9,239.5,221.8z"/>
		
			<linearGradient id="path88_1_" gradientUnits="userSpaceOnUse" x1="506.604" y1="276.475" x2="595.1679" y2="298.2364" gradientTransform="matrix(1 0 0 -1 -238.8 452.7)">
			<stop  offset="0" style="stop-color:#FFA724"/>
			<stop  offset="1" style="stop-color:#BDCE25"/>
		</linearGradient>
		<path id="path88" inkscape:connector-curvature="0" class="st23" d="M375.2,134.2l-90.1,20.2l11.6,32.3l0,0
			c14.2-19.2,36.6-31.5,61.9-31.5c0.9,0,1.8,0,2.7,0.1l0,0L375.2,134.2z"/>
		<path id="path90" inkscape:connector-curvature="0" class="st24" d="M316.6,302.5l-9.3,19.5l53.2,34.5v-39.8l0.2-1.5
			c-0.7,0-1.3,0-2,0C343.1,315.2,328.7,310.5,316.6,302.5L316.6,302.5z"/>
		<path id="path92" inkscape:connector-curvature="0" class="st25" d="M441.9,295.7l20.4-47.2l-39.2,31.4
			c-5.7,8.6-17.3,18.9-25.8,24.6L441.9,295.7z"/>
		<path id="path94" inkscape:connector-curvature="0" class="st26" d="M379.5,114.6c-6.8-1.2-13.8-1.9-20.9-1.9
			c-13,0-25.5,2.1-37.2,6.1l53.6,15.8L379.5,114.6z"/>
	</g>
</g>
</svg>
